<?xml version="1.0" encoding="iso-8859-1"?>
<!-- Generator: Adobe Illustrator 19.0.0, SVG Export Plug-In . SVG Version: 6.00 Build 0)  -->
<svg version="1.1" id="Layer_1" xmlns="http://www.w3.org/2000/svg" xmlns:xlink="http://www.w3.org/1999/xlink" x="0px" y="0px"
	 viewBox="0 0 512 512" style="enable-background:new 0 0 512 512;" xml:space="preserve">
<g>
	<g>
		<path d="M487.003,398.523H378.529c17.344-18.966,29.846-42.424,35.55-68.401h35.026c34.681,0,62.896-28.215,62.896-62.895
			s-28.215-62.895-62.896-62.895h-47.229H100.793c-8.652,0-15.667,7.015-15.667,15.667v78.177
			c0,38.629,14.796,73.866,39.013,100.348H58.802c-0.029,0-0.059,0-0.088,0H15.667C7.015,398.524,0,405.539,0,414.191
			s7.015,15.667,15.667,15.667h33.537l12.73,23.991c15.926,30.014,46.926,48.659,80.903,48.659h216.994
			c33.978,0,64.978-18.645,80.904-48.659l12.729-23.99h33.538c8.652,0,15.667-7.015,15.667-15.667S495.656,398.523,487.003,398.523z
			 M417.542,298.174v-62.509h31.562c17.403,0,31.561,14.159,31.561,31.561c0,17.403-14.159,31.561-31.561,31.561h-31.569
			C417.536,298.583,417.542,298.379,417.542,298.174z M116.461,298.176v-62.51h269.748v62.51c0,42.438-22.616,79.693-56.428,100.348
			H172.889C139.077,377.867,116.461,340.614,116.461,298.176z M413.057,439.162c-10.477,19.745-30.873,32.011-53.226,32.011H142.838
			c-22.352,0-42.747-12.266-53.225-32.011l-4.936-9.303h333.317L413.057,439.162z"/>
	</g>
</g>
<g>
	<g>
		<path d="M215.605,106.216c16.428-16.428,21.905-38.324,15.424-61.657c-4.489-16.161-13.116-27.672-14.083-28.932
			c-5.277-6.859-15.137-8.172-21.996-2.897c-6.858,5.276-8.165,15.08-2.89,21.938c0.062,0.083,6.182,8.295,8.978,19.025
			c3.212,12.326,0.801,21.975-7.59,30.365c-16.499,16.501-21.954,37.939-15.357,60.364c4.586,15.592,13.41,26.472,14.4,27.661
			c3.107,3.728,7.588,5.659,12.097,5.659c3.53,0,7.079-1.184,9.998-3.617c6.647-5.539,7.576-15.382,2.036-22.029
			C214.47,149.447,196.16,125.661,215.605,106.216z"/>
	</g>
</g>
<g>
	<g>
		<path d="M309.219,106.216c16.428-16.428,21.905-38.324,15.424-61.657c-4.489-16.161-13.116-27.672-14.083-28.932
			c-5.277-6.859-15.137-8.172-21.996-2.897c-6.858,5.276-8.165,15.08-2.89,21.938c0.062,0.083,6.182,8.295,8.978,19.025
			c3.212,12.326,0.801,21.975-7.59,30.365c-16.499,16.501-21.954,37.939-15.357,60.364c4.586,15.592,13.41,26.472,14.4,27.661
			c3.107,3.728,7.588,5.659,12.097,5.659c3.53,0,7.079-1.184,9.998-3.617c6.647-5.539,7.576-15.382,2.036-22.029
			C308.085,149.447,289.774,125.661,309.219,106.216z"/>
	</g>
</g>
<g>
</g>
<g>
</g>
<g>
</g>
<g>
</g>
<g>
</g>
<g>
</g>
<g>
</g>
<g>
</g>
<g>
</g>
<g>
</g>
<g>
</g>
<g>
</g>
<g>
</g>
<g>
</g>
<g>
</g>
</svg>
